<?xml version="1.0" encoding="UTF-8" standalone="no"?>
<!DOCTYPE svg PUBLIC "-//W3C//DTD SVG 1.1//EN"
 "http://www.w3.org/Graphics/SVG/1.1/DTD/svg11.dtd">
<!-- Generated by graphviz version 2.47.3 (20210619.1520)
 -->
<!-- Title: dependencies Pages: 1 -->
<svg width="2205pt" height="247pt"
 viewBox="0.00 0.00 2205.00 246.80" xmlns="http://www.w3.org/2000/svg" xmlns:xlink="http://www.w3.org/1999/xlink">
<g id="graph0" class="graph" transform="scale(1 1) rotate(0) translate(4 242.8)">
<title>dependencies</title>
<polygon fill="white" stroke="transparent" points="-4,4 -4,-242.8 2201,-242.8 2201,4 -4,4"/>
<text text-anchor="middle" x="1098.5" y="-8.2" font-family="sans-serif" font-size="14.00">dependencies</text>
<g id="clust1" class="cluster">
<title>cluster_AppModule</title>
<polygon fill="none" stroke="black" stroke-dasharray="1,5" points="8,-32.8 8,-230.8 2189,-230.8 2189,-32.8 8,-32.8"/>
</g>
<g id="clust18" class="cluster">
<title>cluster_AppModule_bootstrap</title>
<polygon fill="none" stroke="black" points="1071,-170.8 1071,-222.8 1195,-222.8 1195,-170.8 1071,-170.8"/>
</g>
<g id="clust16" class="cluster">
<title>cluster_AppModule_imports</title>
<polygon fill="none" stroke="black" points="2037,-40.8 2037,-92.8 2181,-92.8 2181,-40.8 2037,-40.8"/>
</g>
<g id="clust2" class="cluster">
<title>cluster_AppModule_declarations</title>
<polygon fill="none" stroke="black" points="16,-40.8 16,-92.8 2029,-92.8 2029,-40.8 16,-40.8"/>
</g>
<!-- AnswersComponent -->
<g id="node1" class="node">
<title>AnswersComponent</title>
<polygon fill="#ffffb3" stroke="black" points="2021.31,-84.8 1890.69,-84.8 1890.69,-48.8 2021.31,-48.8 2021.31,-84.8"/>
<text text-anchor="middle" x="1956" y="-62.6" font-family="Times,serif" font-size="14.00">AnswersComponent</text>
</g>
<!-- AppModule -->
<g id="node14" class="node">
<title>AppModule</title>
<polygon fill="#8dd3c7" stroke="black" points="1174.66,-149.8 1171.66,-153.8 1150.66,-153.8 1147.66,-149.8 1091.34,-149.8 1091.34,-113.8 1174.66,-113.8 1174.66,-149.8"/>
<text text-anchor="middle" x="1133" y="-127.6" font-family="Times,serif" font-size="14.00">AppModule</text>
</g>
<!-- AnswersComponent&#45;&gt;AppModule -->
<g id="edge1" class="edge">
<title>AnswersComponent&#45;&gt;AppModule</title>
<path fill="none" stroke="black" d="M1956,-84.84C1956,-106.46 1956,-139.8 1956,-139.8 1956,-139.8 1184.66,-139.8 1184.66,-139.8"/>
<polygon fill="black" stroke="black" points="1184.66,-136.3 1174.66,-139.8 1184.66,-143.3 1184.66,-136.3"/>
</g>
<!-- AppComponent -->
<g id="node2" class="node">
<title>AppComponent</title>
<polygon fill="#ffffb3" stroke="black" points="1872.94,-84.8 1767.06,-84.8 1767.06,-48.8 1872.94,-48.8 1872.94,-84.8"/>
<text text-anchor="middle" x="1820" y="-62.6" font-family="Times,serif" font-size="14.00">AppComponent</text>
</g>
<!-- AppComponent&#45;&gt;AppModule -->
<g id="edge2" class="edge">
<title>AppComponent&#45;&gt;AppModule</title>
<path fill="none" stroke="black" d="M1820,-85.02C1820,-105.17 1820,-134.8 1820,-134.8 1820,-134.8 1184.68,-134.8 1184.68,-134.8"/>
<polygon fill="black" stroke="black" points="1184.68,-131.3 1174.68,-134.8 1184.68,-138.3 1184.68,-131.3"/>
</g>
<!-- AuthComponent -->
<g id="node3" class="node">
<title>AuthComponent</title>
<polygon fill="#ffffb3" stroke="black" points="1749.83,-84.8 1640.17,-84.8 1640.17,-48.8 1749.83,-48.8 1749.83,-84.8"/>
<text text-anchor="middle" x="1695" y="-62.6" font-family="Times,serif" font-size="14.00">AuthComponent</text>
</g>
<!-- AuthComponent&#45;&gt;AppModule -->
<g id="edge3" class="edge">
<title>AuthComponent&#45;&gt;AppModule</title>
<path fill="none" stroke="black" d="M1695,-85.02C1695,-103.63 1695,-129.8 1695,-129.8 1695,-129.8 1184.78,-129.8 1184.78,-129.8"/>
<polygon fill="black" stroke="black" points="1184.78,-126.3 1174.78,-129.8 1184.78,-133.3 1184.78,-126.3"/>
</g>
<!-- DataPrivacyComponent -->
<g id="node4" class="node">
<title>DataPrivacyComponent</title>
<polygon fill="#ffffb3" stroke="black" points="1622.02,-84.8 1471.98,-84.8 1471.98,-48.8 1622.02,-48.8 1622.02,-84.8"/>
<text text-anchor="middle" x="1547" y="-62.6" font-family="Times,serif" font-size="14.00">DataPrivacyComponent</text>
</g>
<!-- DataPrivacyComponent&#45;&gt;AppModule -->
<g id="edge4" class="edge">
<title>DataPrivacyComponent&#45;&gt;AppModule</title>
<path fill="none" stroke="black" d="M1547,-84.83C1547,-101.86 1547,-124.8 1547,-124.8 1547,-124.8 1184.97,-124.8 1184.97,-124.8"/>
<polygon fill="black" stroke="black" points="1184.97,-121.3 1174.97,-124.8 1184.97,-128.3 1184.97,-121.3"/>
</g>
<!-- DuelOverviewComponent -->
<g id="node5" class="node">
<title>DuelOverviewComponent</title>
<polygon fill="#ffffb3" stroke="black" points="1453.74,-84.8 1290.26,-84.8 1290.26,-48.8 1453.74,-48.8 1453.74,-84.8"/>
<text text-anchor="middle" x="1372" y="-62.6" font-family="Times,serif" font-size="14.00">DuelOverviewComponent</text>
</g>
<!-- DuelOverviewComponent&#45;&gt;AppModule -->
<g id="edge5" class="edge">
<title>DuelOverviewComponent&#45;&gt;AppModule</title>
<path fill="none" stroke="black" d="M1372,-85.04C1372,-100.37 1372,-119.8 1372,-119.8 1372,-119.8 1184.9,-119.8 1184.9,-119.8"/>
<polygon fill="black" stroke="black" points="1184.9,-116.3 1174.9,-119.8 1184.9,-123.3 1184.9,-116.3"/>
</g>
<!-- DuelPlayComponent -->
<g id="node6" class="node">
<title>DuelPlayComponent</title>
<polygon fill="#ffffb3" stroke="black" points="1271.93,-84.8 1138.07,-84.8 1138.07,-48.8 1271.93,-48.8 1271.93,-84.8"/>
<text text-anchor="middle" x="1205" y="-62.6" font-family="Times,serif" font-size="14.00">DuelPlayComponent</text>
</g>
<!-- DuelPlayComponent&#45;&gt;AppModule -->
<g id="edge6" class="edge">
<title>DuelPlayComponent&#45;&gt;AppModule</title>
<path fill="none" stroke="black" d="M1156.56,-84.91C1156.56,-84.91 1156.56,-103.79 1156.56,-103.79"/>
<polygon fill="black" stroke="black" points="1153.06,-103.79 1156.56,-113.79 1160.06,-103.79 1153.06,-103.79"/>
</g>
<!-- FooterComponent -->
<g id="node7" class="node">
<title>FooterComponent</title>
<polygon fill="#ffffb3" stroke="black" points="1119.88,-84.8 1002.12,-84.8 1002.12,-48.8 1119.88,-48.8 1119.88,-84.8"/>
<text text-anchor="middle" x="1061" y="-62.6" font-family="Times,serif" font-size="14.00">FooterComponent</text>
</g>
<!-- FooterComponent&#45;&gt;AppModule -->
<g id="edge7" class="edge">
<title>FooterComponent&#45;&gt;AppModule</title>
<path fill="none" stroke="black" d="M1105.56,-84.91C1105.56,-84.91 1105.56,-103.79 1105.56,-103.79"/>
<polygon fill="black" stroke="black" points="1102.06,-103.79 1105.56,-113.79 1109.06,-103.79 1102.06,-103.79"/>
</g>
<!-- HeaderComponent -->
<g id="node8" class="node">
<title>HeaderComponent</title>
<polygon fill="#ffffb3" stroke="black" points="983.74,-84.8 862.26,-84.8 862.26,-48.8 983.74,-48.8 983.74,-84.8"/>
<text text-anchor="middle" x="923" y="-62.6" font-family="Times,serif" font-size="14.00">HeaderComponent</text>
</g>
<!-- HeaderComponent&#45;&gt;AppModule -->
<g id="edge8" class="edge">
<title>HeaderComponent&#45;&gt;AppModule</title>
<path fill="none" stroke="black" d="M923,-85.04C923,-100.37 923,-119.8 923,-119.8 923,-119.8 1081.26,-119.8 1081.26,-119.8"/>
<polygon fill="black" stroke="black" points="1081.26,-123.3 1091.26,-119.8 1081.26,-116.3 1081.26,-123.3"/>
</g>
<!-- LegalNoticeComponent -->
<g id="node9" class="node">
<title>LegalNoticeComponent</title>
<polygon fill="#ffffb3" stroke="black" points="844.02,-84.8 693.98,-84.8 693.98,-48.8 844.02,-48.8 844.02,-84.8"/>
<text text-anchor="middle" x="769" y="-62.6" font-family="Times,serif" font-size="14.00">LegalNoticeComponent</text>
</g>
<!-- LegalNoticeComponent&#45;&gt;AppModule -->
<g id="edge9" class="edge">
<title>LegalNoticeComponent&#45;&gt;AppModule</title>
<path fill="none" stroke="black" d="M769,-84.83C769,-101.86 769,-124.8 769,-124.8 769,-124.8 1081.24,-124.8 1081.24,-124.8"/>
<polygon fill="black" stroke="black" points="1081.24,-128.3 1091.24,-124.8 1081.24,-121.3 1081.24,-128.3"/>
</g>
<!-- ModalNewDuelComponent -->
<g id="node10" class="node">
<title>ModalNewDuelComponent</title>
<polygon fill="#ffffb3" stroke="black" points="675.52,-84.8 504.48,-84.8 504.48,-48.8 675.52,-48.8 675.52,-84.8"/>
<text text-anchor="middle" x="590" y="-62.6" font-family="Times,serif" font-size="14.00">ModalNewDuelComponent</text>
</g>
<!-- ModalNewDuelComponent&#45;&gt;AppModule -->
<g id="edge10" class="edge">
<title>ModalNewDuelComponent&#45;&gt;AppModule</title>
<path fill="none" stroke="black" d="M590,-85.02C590,-103.63 590,-129.8 590,-129.8 590,-129.8 1081.29,-129.8 1081.29,-129.8"/>
<polygon fill="black" stroke="black" points="1081.29,-133.3 1091.29,-129.8 1081.29,-126.3 1081.29,-133.3"/>
</g>
<!-- QuestionComponent -->
<g id="node11" class="node">
<title>QuestionComponent</title>
<polygon fill="#ffffb3" stroke="black" points="485.88,-84.8 354.12,-84.8 354.12,-48.8 485.88,-48.8 485.88,-84.8"/>
<text text-anchor="middle" x="420" y="-62.6" font-family="Times,serif" font-size="14.00">QuestionComponent</text>
</g>
<!-- QuestionComponent&#45;&gt;AppModule -->
<g id="edge11" class="edge">
<title>QuestionComponent&#45;&gt;AppModule</title>
<path fill="none" stroke="black" d="M420,-85.02C420,-105.17 420,-134.8 420,-134.8 420,-134.8 1081.32,-134.8 1081.32,-134.8"/>
<polygon fill="black" stroke="black" points="1081.32,-138.3 1091.32,-134.8 1081.32,-131.3 1081.32,-138.3"/>
</g>
<!-- StartpageComponent -->
<g id="node12" class="node">
<title>StartpageComponent</title>
<polygon fill="#ffffb3" stroke="black" points="336.2,-84.8 201.8,-84.8 201.8,-48.8 336.2,-48.8 336.2,-84.8"/>
<text text-anchor="middle" x="269" y="-62.6" font-family="Times,serif" font-size="14.00">StartpageComponent</text>
</g>
<!-- StartpageComponent&#45;&gt;AppModule -->
<g id="edge12" class="edge">
<title>StartpageComponent&#45;&gt;AppModule</title>
<path fill="none" stroke="black" d="M269,-84.84C269,-106.46 269,-139.8 269,-139.8 269,-139.8 1081.33,-139.8 1081.33,-139.8"/>
<polygon fill="black" stroke="black" points="1081.33,-143.3 1091.33,-139.8 1081.33,-136.3 1081.33,-143.3"/>
</g>
<!-- UserStartpageComponent -->
<g id="node13" class="node">
<title>UserStartpageComponent</title>
<polygon fill="#ffffb3" stroke="black" points="184.13,-84.8 23.87,-84.8 23.87,-48.8 184.13,-48.8 184.13,-84.8"/>
<text text-anchor="middle" x="104" y="-62.6" font-family="Times,serif" font-size="14.00">UserStartpageComponent</text>
</g>
<!-- UserStartpageComponent&#45;&gt;AppModule -->
<g id="edge13" class="edge">
<title>UserStartpageComponent&#45;&gt;AppModule</title>
<path fill="none" stroke="black" d="M104,-84.89C104,-107.93 104,-144.8 104,-144.8 104,-144.8 1081.07,-144.8 1081.07,-144.8"/>
<polygon fill="black" stroke="black" points="1081.07,-148.3 1091.07,-144.8 1081.07,-141.3 1081.07,-148.3"/>
</g>
<!-- AppComponent  -->
<g id="node16" class="node">
<title>AppComponent </title>
<polygon fill="#80b1d3" stroke="black" points="1187.44,-214.8 1078.56,-214.8 1078.56,-178.8 1187.44,-178.8 1187.44,-214.8"/>
<text text-anchor="middle" x="1133" y="-192.6" font-family="Times,serif" font-size="14.00">AppComponent </text>
</g>
<!-- AppModule&#45;&gt;AppComponent  -->
<g id="edge15" class="edge">
<title>AppModule&#45;&gt;AppComponent </title>
<path fill="none" stroke="black" stroke-dasharray="1,5" d="M1133,-149.91C1133,-149.91 1133,-168.79 1133,-168.79"/>
<polygon fill="black" stroke="black" points="1129.5,-168.79 1133,-178.79 1136.5,-168.79 1129.5,-168.79"/>
</g>
<!-- AppRoutingModule -->
<g id="node15" class="node">
<title>AppRoutingModule</title>
<polygon fill="#8dd3c7" stroke="black" points="2173.27,-84.8 2170.27,-88.8 2149.27,-88.8 2146.27,-84.8 2044.73,-84.8 2044.73,-48.8 2173.27,-48.8 2173.27,-84.8"/>
<text text-anchor="middle" x="2109" y="-62.6" font-family="Times,serif" font-size="14.00">AppRoutingModule</text>
</g>
<!-- AppRoutingModule&#45;&gt;AppModule -->
<g id="edge14" class="edge">
<title>AppRoutingModule&#45;&gt;AppModule</title>
<path fill="none" stroke="black" d="M2109,-84.89C2109,-107.93 2109,-144.8 2109,-144.8 2109,-144.8 1184.94,-144.8 1184.94,-144.8"/>
<polygon fill="black" stroke="black" points="1184.94,-141.3 1174.94,-144.8 1184.94,-148.3 1184.94,-141.3"/>
</g>
</g>
</svg>
