<?xml version="1.0" encoding="UTF-8" standalone="no"?>
<!DOCTYPE svg PUBLIC "-//W3C//DTD SVG 1.1//EN"
 "http://www.w3.org/Graphics/SVG/1.1/DTD/svg11.dtd">
<!-- Generated by graphviz version 2.47.3 (20210619.1520)
 -->
<!-- Title: dependencies Pages: 1 -->
<svg width="2205pt" height="247pt"
 viewBox="0.00 0.00 2205.00 246.80" xmlns="http://www.w3.org/2000/svg" xmlns:xlink="http://www.w3.org/1999/xlink">
<g id="graph0" class="graph" transform="scale(1 1) rotate(0) translate(4 242.8)">
<title>dependencies</title>
<polygon fill="white" stroke="transparent" points="-4,4 -4,-242.8 2201,-242.8 2201,4 -4,4"/>
<text text-anchor="middle" x="1098.5" y="-8.2" font-family="sans-serif" font-size="14.00">dependencies</text>
<g id="clust1" class="cluster">
<title>cluster_AppModule</title>
<polygon fill="none" stroke="black" stroke-dasharray="1,5" points="8,-32.8 8,-230.8 2189,-230.8 2189,-32.8 8,-32.8"/>
</g>
<g id="clust2" class="cluster">
<title>cluster_AppModule_declarations</title>
<polygon fill="none" stroke="black" points="168,-40.8 168,-92.8 2181,-92.8 2181,-40.8 168,-40.8"/>
</g>
<g id="clust16" class="cluster">
<title>cluster_AppModule_imports</title>
<polygon fill="none" stroke="black" points="16,-40.8 16,-92.8 160,-92.8 160,-40.8 16,-40.8"/>
</g>
<g id="clust18" class="cluster">
<title>cluster_AppModule_bootstrap</title>
<polygon fill="none" stroke="black" points="1082,-170.8 1082,-222.8 1206,-222.8 1206,-170.8 1082,-170.8"/>
</g>
<!-- AnswersComponent -->
<g id="node1" class="node">
<title>AnswersComponent</title>
<polygon fill="#ffffb3" stroke="black" points="2173.31,-84.8 2042.69,-84.8 2042.69,-48.8 2173.31,-48.8 2173.31,-84.8"/>
<text text-anchor="middle" x="2108" y="-62.6" font-family="Times,serif" font-size="14.00">AnswersComponent</text>
</g>
<!-- AppModule -->
<g id="node14" class="node">
<title>AppModule</title>
<polygon fill="#8dd3c7" stroke="black" points="1185.66,-149.8 1182.66,-153.8 1161.66,-153.8 1158.66,-149.8 1102.34,-149.8 1102.34,-113.8 1185.66,-113.8 1185.66,-149.8"/>
<text text-anchor="middle" x="1144" y="-127.6" font-family="Times,serif" font-size="14.00">AppModule</text>
</g>
<!-- AnswersComponent&#45;&gt;AppModule -->
<g id="edge1" class="edge">
<title>AnswersComponent&#45;&gt;AppModule</title>
<path fill="none" stroke="black" d="M2108,-84.89C2108,-107.93 2108,-144.8 2108,-144.8 2108,-144.8 1195.73,-144.8 1195.73,-144.8"/>
<polygon fill="black" stroke="black" points="1195.73,-141.3 1185.73,-144.8 1195.73,-148.3 1195.73,-141.3"/>
</g>
<!-- AppComponent -->
<g id="node2" class="node">
<title>AppComponent</title>
<polygon fill="#ffffb3" stroke="black" points="2024.94,-84.8 1919.06,-84.8 1919.06,-48.8 2024.94,-48.8 2024.94,-84.8"/>
<text text-anchor="middle" x="1972" y="-62.6" font-family="Times,serif" font-size="14.00">AppComponent</text>
</g>
<!-- AppComponent&#45;&gt;AppModule -->
<g id="edge2" class="edge">
<title>AppComponent&#45;&gt;AppModule</title>
<path fill="none" stroke="black" d="M1972,-84.84C1972,-106.46 1972,-139.8 1972,-139.8 1972,-139.8 1195.91,-139.8 1195.91,-139.8"/>
<polygon fill="black" stroke="black" points="1195.91,-136.3 1185.91,-139.8 1195.91,-143.3 1195.91,-136.3"/>
</g>
<!-- AuthComponent -->
<g id="node3" class="node">
<title>AuthComponent</title>
<polygon fill="#ffffb3" stroke="black" points="1901.83,-84.8 1792.17,-84.8 1792.17,-48.8 1901.83,-48.8 1901.83,-84.8"/>
<text text-anchor="middle" x="1847" y="-62.6" font-family="Times,serif" font-size="14.00">AuthComponent</text>
</g>
<!-- AuthComponent&#45;&gt;AppModule -->
<g id="edge3" class="edge">
<title>AuthComponent&#45;&gt;AppModule</title>
<path fill="none" stroke="black" d="M1847,-85.02C1847,-105.17 1847,-134.8 1847,-134.8 1847,-134.8 1195.87,-134.8 1195.87,-134.8"/>
<polygon fill="black" stroke="black" points="1195.87,-131.3 1185.87,-134.8 1195.87,-138.3 1195.87,-131.3"/>
</g>
<!-- DataPrivacyComponent -->
<g id="node4" class="node">
<title>DataPrivacyComponent</title>
<polygon fill="#ffffb3" stroke="black" points="1774.02,-84.8 1623.98,-84.8 1623.98,-48.8 1774.02,-48.8 1774.02,-84.8"/>
<text text-anchor="middle" x="1699" y="-62.6" font-family="Times,serif" font-size="14.00">DataPrivacyComponent</text>
</g>
<!-- DataPrivacyComponent&#45;&gt;AppModule -->
<g id="edge4" class="edge">
<title>DataPrivacyComponent&#45;&gt;AppModule</title>
<path fill="none" stroke="black" d="M1699,-85.02C1699,-103.63 1699,-129.8 1699,-129.8 1699,-129.8 1195.72,-129.8 1195.72,-129.8"/>
<polygon fill="black" stroke="black" points="1195.72,-126.3 1185.72,-129.8 1195.72,-133.3 1195.72,-126.3"/>
</g>
<!-- DuelOverviewComponent -->
<g id="node5" class="node">
<title>DuelOverviewComponent</title>
<polygon fill="#ffffb3" stroke="black" points="1605.74,-84.8 1442.26,-84.8 1442.26,-48.8 1605.74,-48.8 1605.74,-84.8"/>
<text text-anchor="middle" x="1524" y="-62.6" font-family="Times,serif" font-size="14.00">DuelOverviewComponent</text>
</g>
<!-- DuelOverviewComponent&#45;&gt;AppModule -->
<g id="edge5" class="edge">
<title>DuelOverviewComponent&#45;&gt;AppModule</title>
<path fill="none" stroke="black" d="M1524,-84.83C1524,-101.86 1524,-124.8 1524,-124.8 1524,-124.8 1195.75,-124.8 1195.75,-124.8"/>
<polygon fill="black" stroke="black" points="1195.75,-121.3 1185.75,-124.8 1195.75,-128.3 1195.75,-121.3"/>
</g>
<!-- DuelPlayComponent -->
<g id="node6" class="node">
<title>DuelPlayComponent</title>
<polygon fill="#ffffb3" stroke="black" points="1423.93,-84.8 1290.07,-84.8 1290.07,-48.8 1423.93,-48.8 1423.93,-84.8"/>
<text text-anchor="middle" x="1357" y="-62.6" font-family="Times,serif" font-size="14.00">DuelPlayComponent</text>
</g>
<!-- DuelPlayComponent&#45;&gt;AppModule -->
<g id="edge6" class="edge">
<title>DuelPlayComponent&#45;&gt;AppModule</title>
<path fill="none" stroke="black" d="M1357,-85.04C1357,-100.37 1357,-119.8 1357,-119.8 1357,-119.8 1195.83,-119.8 1195.83,-119.8"/>
<polygon fill="black" stroke="black" points="1195.83,-116.3 1185.83,-119.8 1195.83,-123.3 1195.83,-116.3"/>
</g>
<!-- FooterComponent -->
<g id="node7" class="node">
<title>FooterComponent</title>
<polygon fill="#ffffb3" stroke="black" points="1271.88,-84.8 1154.12,-84.8 1154.12,-48.8 1271.88,-48.8 1271.88,-84.8"/>
<text text-anchor="middle" x="1213" y="-62.6" font-family="Times,serif" font-size="14.00">FooterComponent</text>
</g>
<!-- FooterComponent&#45;&gt;AppModule -->
<g id="edge7" class="edge">
<title>FooterComponent&#45;&gt;AppModule</title>
<path fill="none" stroke="black" d="M1169.94,-84.91C1169.94,-84.91 1169.94,-103.79 1169.94,-103.79"/>
<polygon fill="black" stroke="black" points="1166.44,-103.79 1169.94,-113.79 1173.44,-103.79 1166.44,-103.79"/>
</g>
<!-- HeaderComponent -->
<g id="node8" class="node">
<title>HeaderComponent</title>
<polygon fill="#ffffb3" stroke="black" points="1135.74,-84.8 1014.26,-84.8 1014.26,-48.8 1135.74,-48.8 1135.74,-84.8"/>
<text text-anchor="middle" x="1075" y="-62.6" font-family="Times,serif" font-size="14.00">HeaderComponent</text>
</g>
<!-- HeaderComponent&#45;&gt;AppModule -->
<g id="edge8" class="edge">
<title>HeaderComponent&#45;&gt;AppModule</title>
<path fill="none" stroke="black" d="M1119.02,-84.91C1119.02,-84.91 1119.02,-103.79 1119.02,-103.79"/>
<polygon fill="black" stroke="black" points="1115.52,-103.79 1119.02,-113.79 1122.52,-103.79 1115.52,-103.79"/>
</g>
<!-- LegalNoticeComponent -->
<g id="node9" class="node">
<title>LegalNoticeComponent</title>
<polygon fill="#ffffb3" stroke="black" points="996.02,-84.8 845.98,-84.8 845.98,-48.8 996.02,-48.8 996.02,-84.8"/>
<text text-anchor="middle" x="921" y="-62.6" font-family="Times,serif" font-size="14.00">LegalNoticeComponent</text>
</g>
<!-- LegalNoticeComponent&#45;&gt;AppModule -->
<g id="edge9" class="edge">
<title>LegalNoticeComponent&#45;&gt;AppModule</title>
<path fill="none" stroke="black" d="M921,-85.04C921,-100.37 921,-119.8 921,-119.8 921,-119.8 1092.32,-119.8 1092.32,-119.8"/>
<polygon fill="black" stroke="black" points="1092.32,-123.3 1102.32,-119.8 1092.32,-116.3 1092.32,-123.3"/>
</g>
<!-- ModalNewDuelComponent -->
<g id="node10" class="node">
<title>ModalNewDuelComponent</title>
<polygon fill="#ffffb3" stroke="black" points="827.52,-84.8 656.48,-84.8 656.48,-48.8 827.52,-48.8 827.52,-84.8"/>
<text text-anchor="middle" x="742" y="-62.6" font-family="Times,serif" font-size="14.00">ModalNewDuelComponent</text>
</g>
<!-- ModalNewDuelComponent&#45;&gt;AppModule -->
<g id="edge10" class="edge">
<title>ModalNewDuelComponent&#45;&gt;AppModule</title>
<path fill="none" stroke="black" d="M742,-84.83C742,-101.86 742,-124.8 742,-124.8 742,-124.8 1092.12,-124.8 1092.12,-124.8"/>
<polygon fill="black" stroke="black" points="1092.12,-128.3 1102.12,-124.8 1092.12,-121.3 1092.12,-128.3"/>
</g>
<!-- QuestionComponent -->
<g id="node11" class="node">
<title>QuestionComponent</title>
<polygon fill="#ffffb3" stroke="black" points="637.88,-84.8 506.12,-84.8 506.12,-48.8 637.88,-48.8 637.88,-84.8"/>
<text text-anchor="middle" x="572" y="-62.6" font-family="Times,serif" font-size="14.00">QuestionComponent</text>
</g>
<!-- QuestionComponent&#45;&gt;AppModule -->
<g id="edge11" class="edge">
<title>QuestionComponent&#45;&gt;AppModule</title>
<path fill="none" stroke="black" d="M572,-85.02C572,-103.63 572,-129.8 572,-129.8 572,-129.8 1091.94,-129.8 1091.94,-129.8"/>
<polygon fill="black" stroke="black" points="1091.94,-133.3 1101.94,-129.8 1091.94,-126.3 1091.94,-133.3"/>
</g>
<!-- StartpageComponent -->
<g id="node12" class="node">
<title>StartpageComponent</title>
<polygon fill="#ffffb3" stroke="black" points="488.2,-84.8 353.8,-84.8 353.8,-48.8 488.2,-48.8 488.2,-84.8"/>
<text text-anchor="middle" x="421" y="-62.6" font-family="Times,serif" font-size="14.00">StartpageComponent</text>
</g>
<!-- StartpageComponent&#45;&gt;AppModule -->
<g id="edge12" class="edge">
<title>StartpageComponent&#45;&gt;AppModule</title>
<path fill="none" stroke="black" d="M421,-85.02C421,-105.17 421,-134.8 421,-134.8 421,-134.8 1092.27,-134.8 1092.27,-134.8"/>
<polygon fill="black" stroke="black" points="1092.27,-138.3 1102.27,-134.8 1092.27,-131.3 1092.27,-138.3"/>
</g>
<!-- UserStartpageComponent -->
<g id="node13" class="node">
<title>UserStartpageComponent</title>
<polygon fill="#ffffb3" stroke="black" points="336.13,-84.8 175.87,-84.8 175.87,-48.8 336.13,-48.8 336.13,-84.8"/>
<text text-anchor="middle" x="256" y="-62.6" font-family="Times,serif" font-size="14.00">UserStartpageComponent</text>
</g>
<!-- UserStartpageComponent&#45;&gt;AppModule -->
<g id="edge13" class="edge">
<title>UserStartpageComponent&#45;&gt;AppModule</title>
<path fill="none" stroke="black" d="M256,-84.84C256,-106.46 256,-139.8 256,-139.8 256,-139.8 1092.06,-139.8 1092.06,-139.8"/>
<polygon fill="black" stroke="black" points="1092.06,-143.3 1102.06,-139.8 1092.06,-136.3 1092.06,-143.3"/>
</g>
<!-- AppComponent  -->
<g id="node16" class="node">
<title>AppComponent </title>
<polygon fill="#80b1d3" stroke="black" points="1198.44,-214.8 1089.56,-214.8 1089.56,-178.8 1198.44,-178.8 1198.44,-214.8"/>
<text text-anchor="middle" x="1144" y="-192.6" font-family="Times,serif" font-size="14.00">AppComponent </text>
</g>
<!-- AppModule&#45;&gt;AppComponent  -->
<g id="edge15" class="edge">
<title>AppModule&#45;&gt;AppComponent </title>
<path fill="none" stroke="black" stroke-dasharray="1,5" d="M1144,-149.91C1144,-149.91 1144,-168.79 1144,-168.79"/>
<polygon fill="black" stroke="black" points="1140.5,-168.79 1144,-178.79 1147.5,-168.79 1140.5,-168.79"/>
</g>
<!-- AppRoutingModule -->
<g id="node15" class="node">
<title>AppRoutingModule</title>
<polygon fill="#8dd3c7" stroke="black" points="152.27,-84.8 149.27,-88.8 128.27,-88.8 125.27,-84.8 23.73,-84.8 23.73,-48.8 152.27,-48.8 152.27,-84.8"/>
<text text-anchor="middle" x="88" y="-62.6" font-family="Times,serif" font-size="14.00">AppRoutingModule</text>
</g>
<!-- AppRoutingModule&#45;&gt;AppModule -->
<g id="edge14" class="edge">
<title>AppRoutingModule&#45;&gt;AppModule</title>
<path fill="none" stroke="black" d="M88,-84.89C88,-107.93 88,-144.8 88,-144.8 88,-144.8 1092.28,-144.8 1092.28,-144.8"/>
<polygon fill="black" stroke="black" points="1092.28,-148.3 1102.28,-144.8 1092.28,-141.3 1092.28,-148.3"/>
</g>
</g>
</svg>
